<?xml version="1.0" standalone="no"?>
<!DOCTYPE svg PUBLIC "-//W3C//DTD SVG 20010904//EN"
 "http://www.w3.org/TR/2001/REC-SVG-20010904/DTD/svg10.dtd">
<svg version="1.0" xmlns="http://www.w3.org/2000/svg"
 width="274.000000pt" height="274.000000pt" viewBox="0 0 274.000000 274.000000"
 preserveAspectRatio="xMidYMid meet">
<metadata>
Created by potrace 1.14, written by Peter Selinger 2001-2017
</metadata>
<g transform="translate(0.000000,274.000000) scale(0.100000,-0.100000)"
fill="#000000" stroke="none">
<path d="M610 2481 c0 -4 -13 -7 -30 -5 -16 2 -30 -1 -30 -6 0 -5 -9 -7 -20
-5 -11 2 -22 -1 -25 -6 -4 -5 -11 -6 -17 -3 -7 5 -8 2 -3 -6 6 -10 4 -12 -9
-7 -11 5 -15 3 -10 -5 5 -8 2 -9 -9 -5 -9 3 -16 3 -16 -1 3 -20 -2 -25 -12
-12 -9 12 -10 12 -5 -4 5 -13 2 -17 -9 -13 -8 4 -17 1 -21 -5 -4 -7 -3 -8 4
-4 7 4 12 1 12 -8 0 -8 -6 -14 -12 -12 -7 1 -10 1 -5 -1 4 -3 7 -9 7 -14 0 -6
-4 -8 -8 -5 -13 8 -35 -11 -37 -31 0 -10 -5 -24 -9 -31 -9 -16 -2 -27 13 -18
5 4 7 18 5 33 -4 23 -3 25 11 13 9 -7 15 -9 14 -4 -4 13 36 75 44 69 4 -3 5
-2 3 1 -7 9 17 33 27 27 4 -2 7 1 7 6 0 6 5 11 11 11 7 0 18 8 25 18 13 16 14
16 8 0 -3 -10 -1 -18 5 -18 6 0 11 7 11 15 0 9 6 12 15 9 8 -4 12 -11 8 -17
-3 -6 -1 -7 5 -3 6 4 9 14 6 24 -2 9 1 7 7 -5 l12 -22 19 22 c15 17 18 18 14
5 -3 -10 -1 -18 4 -18 6 0 10 7 10 16 0 8 5 12 10 9 6 -4 7 -12 4 -18 -5 -8
-3 -8 7 1 7 6 20 12 28 12 11 0 10 -4 -5 -16 -10 -8 -12 -12 -4 -8 8 5 30 9
49 9 21 1 36 7 39 16 3 11 2 11 -7 -1 -9 -12 -11 -13 -11 -1 0 8 -3 11 -7 8
-3 -4 -16 1 -27 10 -20 17 -20 17 -6 -1 14 -18 13 -18 -9 -11 -13 4 -30 8 -37
9 -7 1 -17 5 -20 9 -10 10 -24 9 -24 -2z"/>
<path d="M772 2440 c2 -14 7 -23 12 -22 5 2 13 -2 17 -10 7 -10 9 -10 9 0 0 8
14 3 40 -13 24 -15 40 -20 40 -13 0 6 7 3 15 -8 8 -10 15 -15 15 -11 0 5 7 1
16 -7 8 -9 20 -13 26 -10 7 5 9 -2 6 -20 -5 -27 20 -54 37 -38 5 4 5 -2 1 -12
-6 -17 -5 -17 11 -5 15 12 16 12 10 -3 -5 -14 -1 -18 16 -18 18 0 19 -2 7 -10
-13 -8 -12 -10 3 -10 9 0 17 -4 17 -10 0 -5 5 -10 11 -10 5 0 7 5 3 12 -4 7
-3 8 5 4 9 -6 9 -11 0 -22 -10 -12 -9 -13 4 -8 10 3 19 -3 27 -18 11 -22 10
-22 -4 -4 -9 11 -16 15 -16 9 0 -13 18 -26 38 -29 24 -4 24 -12 0 -25 -12 -7
-25 -14 -28 -14 -16 -3 -103 -53 -155 -90 -79 -56 -162 -145 -220 -234 -36
-55 -52 -72 -65 -68 -13 3 -17 0 -13 -9 3 -8 10 -11 17 -8 6 3 3 -1 -8 -10
-15 -12 -23 -13 -40 -4 -19 10 -19 9 -8 -5 11 -13 10 -15 -7 -10 -15 4 -21 1
-21 -11 0 -10 -5 -14 -10 -11 -6 4 -7 11 -4 17 4 7 2 8 -5 4 -6 -4 -9 -12 -6
-17 4 -5 -1 -9 -10 -9 -10 0 -13 -5 -9 -12 5 -8 0 -7 -11 2 -10 8 -16 10 -12
4 4 -6 -3 -20 -15 -30 -21 -19 -21 -19 -9 6 12 25 12 25 -6 4 -10 -11 -25 -18
-32 -16 -8 3 -11 0 -7 -7 6 -10 -6 -15 -27 -12 -4 0 -7 -5 -7 -13 0 -9 8 -13
23 -10 20 4 20 4 2 -4 -11 -5 -30 -8 -42 -7 -22 2 -27 -6 -24 -45 0 -10 -1
-11 -5 -2 -3 6 -15 12 -25 12 -11 0 -17 -4 -14 -10 3 -5 -1 -10 -9 -10 -9 0
-16 -5 -16 -11 0 -5 5 -7 12 -3 7 5 8 3 3 -5 -5 -9 -10 -10 -18 -2 -8 8 -19 2
-39 -20 -15 -16 -28 -33 -28 -36 0 -3 11 -16 24 -28 20 -18 26 -20 30 -8 3 8
2 12 -3 9 -4 -3 -16 3 -26 14 -10 12 -13 20 -7 20 7 0 12 -4 12 -10 0 -20 26
-9 55 22 16 19 25 25 22 15 -5 -13 -3 -17 5 -14 7 2 12 10 10 16 -2 9 3 9 17
1 31 -16 35 -12 10 10 -13 10 -18 19 -11 20 6 0 12 -4 12 -10 0 -5 7 -10 16
-10 9 0 12 5 8 11 -4 7 -1 10 7 7 8 -3 13 -14 11 -24 -2 -16 -1 -16 7 -4 6 8
15 16 21 16 5 1 12 3 15 4 3 1 10 3 16 4 6 0 17 12 25 26 15 25 15 25 8 1 -4
-16 -3 -21 5 -17 6 4 11 13 11 21 0 8 4 16 9 19 5 4 7 -4 5 -16 -2 -13 -2 -18
1 -11 4 6 17 9 31 7 19 -3 24 0 24 16 0 11 5 20 11 20 5 0 8 -3 6 -7 -17 -28
-25 -254 -12 -333 13 -76 14 -82 36 -149 36 -107 97 -208 184 -300 51 -55 215
-171 242 -171 10 0 13 -6 9 -16 -5 -13 -4 -14 7 -6 10 9 14 8 14 -3 0 -8 -4
-12 -8 -10 -3 3 -12 -2 -19 -10 -7 -9 -21 -13 -31 -10 -21 7 -26 -10 -6 -18 9
-4 8 -6 -2 -6 -11 -1 -11 -4 0 -18 12 -16 12 -16 -1 -6 -12 9 -19 8 -33 -2
-10 -7 -18 -17 -18 -22 -1 -4 -3 -10 -6 -13 -4 -3 -3 0 0 6 10 17 -21 26 -44
13 -17 -8 -19 -29 -3 -29 3 0 2 4 -1 10 -4 6 1 7 11 3 13 -5 15 -3 9 7 -6 9
-4 11 5 5 10 -6 10 -11 -3 -20 -9 -7 -13 -16 -9 -20 4 -4 -5 0 -20 10 -25 16
-28 16 -34 1 -3 -9 -11 -13 -18 -9 -6 4 -4 -2 4 -12 14 -17 14 -18 -7 -7 -17
9 -22 9 -27 -4 -3 -8 -10 -13 -14 -10 -5 3 -19 -1 -33 -7 -13 -7 -36 -12 -51
-12 -15 1 -25 -1 -23 -3 2 -3 0 -13 -5 -23 -7 -12 -6 -19 3 -22 6 -3 8 -6 2
-6 -5 0 -17 4 -25 10 -11 8 -12 12 -2 16 6 2 12 9 12 15 0 6 -6 5 -15 -2 -9
-7 -14 -19 -11 -26 3 -8 0 -11 -9 -7 -8 3 -12 10 -8 17 4 7 1 7 -9 -1 -8 -7
-18 -10 -21 -6 -4 3 -7 1 -7 -7 0 -10 -3 -10 -14 -1 -11 9 -16 9 -22 0 -4 -8
-3 -9 4 -5 7 4 12 3 12 -3 0 -19 -19 -21 -29 -4 -6 11 -11 13 -11 5 0 -7 -4
-11 -9 -7 -15 9 -25 -15 -12 -28 9 -9 10 -7 5 8 -7 18 -6 19 11 5 10 -8 20
-14 21 -12 40 30 69 39 88 29 11 -7 24 -16 28 -22 5 -6 8 -5 8 4 0 8 6 11 16
7 8 -3 12 -2 9 3 -6 11 35 8 54 -3 7 -4 15 -5 18 -2 4 3 0 6 -8 6 -11 0 -11 2
1 10 11 7 19 5 29 -8 13 -16 13 -16 7 2 -5 14 -2 17 9 12 13 -5 14 -2 5 15 -6
11 -18 23 -26 26 -7 3 -11 9 -8 14 3 5 14 -1 23 -13 l18 -22 12 22 c7 13 16
20 21 17 4 -3 11 1 14 7 2 7 4 4 3 -7 -3 -25 -15 -45 -28 -45 -6 0 -7 5 -3 12
4 7 3 8 -5 4 -6 -4 -9 -12 -6 -17 8 -12 51 -4 47 10 -1 6 3 11 9 11 5 0 7 6 3
13 -5 7 0 6 11 -3 17 -13 18 -13 13 1 -4 11 2 21 17 29 15 8 21 19 18 29 -4
13 -3 14 5 1 6 -8 8 -18 5 -24 -3 -5 -1 -6 5 -2 6 3 13 2 17 -4 3 -5 -1 -10
-9 -10 -8 0 -18 -4 -21 -10 -4 -6 1 -7 12 -3 31 11 34 14 24 26 -6 8 -4 19 6
32 15 20 15 20 9 0 -3 -11 -1 -27 5 -35 8 -12 9 -9 4 9 -5 16 -4 21 4 17 7 -5
8 -1 4 11 -6 16 -5 16 11 4 11 -10 20 -11 24 -4 4 5 19 9 34 9 14 -1 24 2 22
6 -6 9 37 39 47 32 4 -2 11 1 15 7 4 8 3 9 -4 5 -7 -4 -12 -2 -12 3 0 6 12 11
26 11 14 0 23 4 19 9 -3 5 -1 12 4 15 5 4 12 2 15 -3 3 -5 15 -7 26 -4 11 3
31 2 45 -1 33 -8 33 -36 0 -100 -14 -27 -25 -55 -25 -62 0 -16 95 -47 123 -40
12 3 30 11 40 18 17 13 17 16 2 53 -9 22 -22 52 -30 66 -18 33 -9 69 19 70
208 8 452 159 582 360 81 125 145 323 148 454 0 11 6 24 13 28 7 5 10 14 7 20
-4 7 -4 9 1 5 4 -4 16 -3 26 3 13 6 19 6 19 -1 0 -5 5 -10 12 -10 6 0 -1 15
-18 33 -16 17 -22 26 -14 20 24 -22 48 -16 45 11 -2 18 1 23 12 19 12 -5 12
-7 1 -14 -9 -6 -9 -9 -1 -9 6 0 20 13 29 29 10 17 21 28 25 25 11 -6 51 54 44
65 -3 6 -13 8 -23 5 -13 -5 -14 -4 -3 4 7 5 9 12 5 14 -5 3 -2 3 6 0 8 -3 26
-5 40 -6 33 -1 51 -17 38 -33 -10 -13 -9 -14 15 -17 6 -1 11 -9 9 -19 -2 -9 1
-17 5 -18 4 0 17 -2 28 -4 15 -3 21 1 22 15 1 11 -3 20 -8 20 -6 0 -8 4 -5 8
2 4 1 14 -5 22 -5 8 -9 10 -9 5 0 -6 -8 -11 -18 -11 -10 0 -19 6 -19 12 0 7 7
10 15 6 10 -3 13 0 10 9 -3 8 -9 14 -14 14 -15 0 -34 16 -34 28 0 8 3 8 12 -1
7 -7 17 -12 22 -12 6 0 1 7 -11 15 -12 9 -20 23 -18 33 2 10 -2 19 -9 19 -7 0
-13 -6 -13 -13 0 -7 3 -11 7 -9 8 5 6 -52 -2 -60 -3 -3 -5 5 -4 17 1 13 -7 31
-18 41 -13 10 -15 15 -6 12 11 -4 16 1 17 14 1 15 -3 18 -15 14 -9 -3 -5 4 11
16 15 13 25 27 21 32 -3 6 -1 16 6 24 8 10 8 15 -1 21 -7 4 -9 3 -6 -3 4 -6 0
-16 -8 -23 -24 -20 -18 7 7 32 14 14 16 19 6 15 -9 -3 -18 0 -21 6 -6 17 3 38
13 32 5 -3 12 0 16 6 4 7 3 9 -3 6 -10 -6 -25 14 -27 36 -1 4 -5 7 -11 8 -5 1
-18 5 -29 11 -25 14 -11 -10 22 -36 20 -16 22 -21 11 -30 -17 -14 -23 -36 -9
-36 5 0 10 -5 10 -11 0 -6 -5 -7 -12 -2 -18 11 -58 12 -64 1 -3 -5 0 -7 7 -6
6 2 14 -3 17 -11 2 -8 0 -11 -5 -8 -5 3 -9 -3 -9 -14 0 -15 5 -19 20 -15 13 3
16 2 8 -6 -14 -14 -52 0 -45 18 3 7 0 14 -6 14 -6 0 -10 -5 -8 -12 1 -7 -8
-13 -20 -14 -47 -3 -49 -4 -33 -14 12 -8 12 -10 1 -10 -8 0 -11 -3 -8 -6 4 -4
13 -1 22 6 9 8 15 8 15 2 0 -6 -5 -14 -11 -18 -8 -4 -3 -12 12 -20 13 -7 18
-13 10 -14 -8 0 -11 -7 -8 -19 3 -14 1 -18 -9 -14 -11 4 -11 10 -2 26 6 12 7
19 3 15 -4 -4 -17 -3 -29 3 -19 9 -19 9 -3 -4 18 -15 24 -33 7 -22 -6 4 -7 -1
-3 -11 4 -12 3 -15 -6 -10 -8 5 -7 -4 4 -25 l17 -34 -26 29 c-14 16 -26 25
-26 20 0 -6 5 -15 11 -21 9 -9 6 -12 -12 -11 -13 1 -29 5 -36 10 -7 6 -14 4
-19 -3 -4 -7 -3 -9 4 -5 6 3 13 2 17 -4 3 -5 2 -10 -2 -10 -5 0 -9 -9 -9 -20
0 -12 5 -19 13 -16 7 3 15 1 17 -3 3 -5 -5 -8 -17 -7 -12 1 -21 7 -20 14 2 7
-2 12 -7 12 -6 0 -10 10 -10 23 0 33 -70 184 -117 252 -116 169 -298 289 -494
325 -68 13 -182 15 -238 5 -34 -6 -59 5 -108 49 -13 11 -32 29 -43 38 -13 12
-20 13 -24 5 -2 -7 -5 -3 -5 7 -1 11 -4 16 -8 12 -4 -3 -13 4 -21 16 -10 17
-12 18 -7 4 5 -16 1 -14 -20 7 -16 16 -33 23 -42 20 -11 -4 -14 -2 -9 5 5 8 2
10 -8 6 -20 -8 -21 -24 -2 -24 8 0 17 -4 20 -9 3 -5 -2 -8 -12 -7 -28 2 -36
25 -15 49 16 19 16 20 1 8 -17 -13 -23 -8 -19 13 1 5 -5 4 -13 -4 -15 -11 -20
-7 -17 13 1 5 -3 6 -9 2 -5 -3 -10 -1 -10 4 0 6 -7 11 -16 11 -9 0 -12 5 -8
13 6 10 4 10 -7 0 -16 -15 -33 -17 -24 -3 3 6 -1 7 -10 4 -11 -5 -14 -2 -9 10
3 9 1 16 -5 16 -6 0 -11 -5 -11 -10 0 -6 -6 -5 -14 2 -8 7 -12 16 -10 20 2 3
-4 5 -13 4 -10 -2 -22 2 -26 8 -4 6 -7 0 -5 -14z m32 -8 c3 -5 -1 -9 -9 -9 -8
0 -12 4 -9 9 3 4 7 8 9 8 2 0 6 -4 9 -8z m255 -146 c-3 -3 -11 5 -18 17 -13
21 -12 21 5 5 10 -10 16 -20 13 -22z m1331 -506 c0 -5 -6 -12 -12 -16 -7 -4
-10 -4 -6 1 4 4 3 14 -4 22 -8 11 -7 12 6 7 9 -3 16 -10 16 -14z m-62 -65 c-3
-3 -9 2 -12 12 -6 14 -5 15 5 6 7 -7 10 -15 7 -18z m102 20 c0 -7 -30 -13 -34
-7 -3 4 4 9 15 9 10 1 19 0 19 -2z m-116 -30 c3 -8 1 -15 -4 -15 -6 0 -10 7
-10 15 0 8 2 15 4 15 2 0 6 -7 10 -15z m-29 -93 c-3 -3 -11 0 -18 7 -9 10 -8
11 6 5 10 -3 15 -9 12 -12z m125 -12 c0 -5 -7 -7 -15 -4 -8 4 -15 8 -15 10 0
2 7 4 15 4 8 0 15 -4 15 -10z m-184 -22 c4 -6 3 -8 -4 -4 -5 3 -12 0 -15 -6
-2 -7 -8 -9 -13 -5 -5 4 -2 12 6 17 19 12 17 12 26 -2z m135 -44 c-9 -12 -18
-22 -21 -22 -20 1 -30 -3 -25 -11 8 -13 -8 -21 -23 -12 -9 5 -5 12 13 21 14 7
25 17 25 22 0 5 5 6 12 2 7 -5 9 -2 6 7 -4 10 1 15 12 15 17 0 17 -2 1 -22z
m-1764 1 c0 -6 -6 -12 -12 -12 -6 0 -12 6 -12 12 0 6 6 12 12 12 6 0 12 -6 12
-12z m1693 5 c0 -5 -2 -10 -4 -10 -3 0 -8 5 -11 10 -3 6 -1 10 4 10 6 0 11 -4
11 -10z m222 -28 c-16 -5 -27 -3 -27 6 0 4 -4 13 -9 21 -5 8 2 6 19 -5 15 -10
23 -20 17 -22z m-2038 -13 c9 14 26 14 26 1 0 -5 -3 -9 -7 -9 -5 1 -10 0 -13
-1 -24 -9 -38 -6 -33 7 4 11 8 11 13 3 5 -9 9 -9 14 -1z m-177 -55 c-3 -3 -12
-4 -19 -1 -8 3 -5 6 6 6 11 1 17 -2 13 -5z m875 -931 c-6 -2 -10 -9 -6 -14 3
-5 0 -9 -5 -9 -12 0 -14 13 -4 23 3 4 11 7 17 6 6 0 5 -3 -2 -6z m-42 -43 c13
0 13 2 0 11 -10 7 -11 9 -2 7 19 -5 14 -22 -9 -30 -12 -5 -18 -4 -14 2 3 6 1
10 -4 10 -6 0 -11 5 -11 12 0 9 3 9 12 0 7 -7 19 -12 28 -12z m-45 -9 c3 -5 1
-12 -5 -16 -5 -3 -10 1 -10 9 0 18 6 21 15 7z m-170 -30 c3 -5 2 -12 -3 -15
-5 -3 -9 1 -9 9 0 17 3 19 12 6z m-53 -38 c-6 -2 -9 -10 -6 -15 4 -7 2 -8 -5
-4 -13 9 -5 26 12 25 9 0 8 -2 -1 -6z m-68 -28 c-3 -8 -15 -17 -26 -21 -17 -5
-18 -8 -7 -16 12 -8 11 -9 -1 -5 -8 2 -14 10 -12 16 1 6 -4 11 -10 11 -7 0 -5
5 5 11 9 5 21 8 26 4 5 -3 12 -1 16 5 9 15 15 12 9 -5z m35 -28 c0 -9 -2 -9
-6 0 -3 10 -8 9 -20 -3 -8 -8 -18 -12 -21 -9 -7 7 31 34 40 29 5 -3 8 -11 7
-17z"/>
<path d="M1815 2400 c3 -5 8 -10 11 -10 2 0 4 5 4 10 0 6 -5 10 -11 10 -5 0
-7 -4 -4 -10z"/>
<path d="M2154 2308 c4 -30 36 -54 36 -28 0 6 -5 9 -12 8 -7 -2 -12 2 -13 9 0
6 -3 14 -7 18 -3 4 -6 1 -4 -7z"/>
<path d="M346 2237 c3 -10 9 -15 12 -12 3 3 0 11 -7 18 -10 9 -11 8 -5 -6z"/>
<path d="M2215 2239 c-4 -5 -1 -8 7 -7 7 2 12 -3 10 -10 -1 -8 2 -11 8 -7 5 3
10 10 10 15 0 12 -29 20 -35 9z"/>
<path d="M2275 2210 c-4 -6 -11 -8 -16 -4 -6 3 -5 -3 3 -15 7 -12 20 -21 28
-21 12 1 11 3 -3 11 -14 8 -16 14 -6 25 6 8 9 14 6 14 -3 0 -9 -5 -12 -10z"/>
<path d="M343 2191 c-10 -16 -9 -20 3 -25 9 -3 12 -11 8 -17 -4 -8 -3 -9 5 -5
9 6 9 11 1 21 -6 7 -8 20 -4 29 8 22 1 20 -13 -3z"/>
<path d="M2294 2143 c2 -10 6 -17 9 -15 4 1 12 2 18 2 6 0 4 7 -5 15 -19 20
-25 19 -22 -2z"/>
<path d="M340 2126 c0 -2 7 -7 16 -10 8 -3 12 -2 9 4 -6 10 -25 14 -25 6z"/>
<path d="M2329 2119 c-6 -29 -3 -46 7 -46 8 0 12 8 11 18 -3 17 -16 38 -18 28z"/>
<path d="M340 2103 c0 -15 18 -35 23 -27 3 5 -1 15 -9 22 -8 7 -14 9 -14 5z"/>
<path d="M359 2053 c-8 -9 -9 -14 -2 -10 6 4 13 1 16 -5 3 -7 4 -3 4 10 -1 26
-1 26 -18 5z"/>
<path d="M2343 2063 c-10 -3 -10 -7 0 -18 7 -7 16 -11 20 -8 5 3 8 -10 7 -28
-1 -19 -1 -38 0 -44 1 -5 2 -14 1 -18 -1 -5 3 -5 9 -2 7 4 10 1 8 -7 -2 -7 0
-13 3 -13 14 0 38 -28 32 -38 -3 -6 -1 -7 5 -3 12 7 5 36 -9 36 -6 0 -4 10 2
23 11 20 11 21 -5 8 -14 -12 -16 -12 -10 4 6 14 4 16 -6 10 -10 -6 -12 -4 -7
8 3 9 1 19 -5 23 -7 4 -6 9 3 15 10 6 11 9 2 9 -7 0 -12 3 -11 8 2 11 -13 42
-21 41 -3 0 -11 -3 -18 -6z"/>
<path d="M393 2023 c4 -3 1 -13 -6 -22 -11 -14 -10 -14 5 -2 16 12 16 31 1 31
-4 0 -3 -3 0 -7z"/>
<path d="M454 1906 c1 -8 5 -18 8 -22 4 -3 5 1 4 10 -1 8 -5 18 -8 22 -4 3 -5
-1 -4 -10z"/>
<path d="M2370 1866 c0 -8 -6 -17 -12 -19 -10 -4 -10 -6 0 -6 6 -1 12 -8 12
-17 0 -8 5 -12 10 -9 6 4 8 11 5 16 -4 5 1 12 10 15 12 5 13 9 4 20 -15 18
-29 18 -29 0z m11 -19 c-10 -9 -11 -8 -5 6 3 10 9 15 12 12 3 -3 0 -11 -7 -18z"/>
<path d="M2209 1743 c-13 -16 -12 -17 4 -4 9 7 17 15 17 17 0 8 -8 3 -21 -13z"/>
<path d="M632 1706 c7 -8 15 -12 17 -11 5 6 -10 25 -20 25 -5 0 -4 -6 3 -14z"/>
<path d="M2533 1498 c1 -7 -5 -14 -13 -14 -32 -3 -35 -5 -21 -13 7 -5 14 -22
14 -38 1 -23 6 -29 22 -28 11 1 20 7 20 12 0 6 2 14 6 17 3 3 5 -5 5 -19 0
-13 -4 -21 -8 -19 -5 3 -7 -6 -4 -20 3 -14 1 -28 -4 -31 -5 -3 -4 -20 1 -38
11 -40 11 -40 -2 -31 -8 4 -8 0 0 -15 14 -25 23 -28 15 -3 -5 13 -4 14 4 3 5
-7 9 -21 7 -30 -1 -9 3 -20 9 -24 7 -6 6 -7 -4 -4 -8 2 -14 9 -13 15 1 5 -4
13 -12 16 -13 5 -13 2 0 -24 18 -36 19 -44 2 -37 -8 3 -14 -1 -14 -9 0 -7 4
-11 8 -9 4 3 5 -4 2 -15 -3 -11 -9 -20 -15 -20 -5 0 -4 -8 1 -19 8 -15 7 -18
-6 -17 -9 0 -17 -8 -19 -23 -3 -17 0 -22 11 -18 8 4 17 2 20 -2 3 -5 -9 -8
-26 -7 -16 1 -33 -2 -36 -7 -3 -6 -1 -7 5 -3 6 3 13 2 17 -4 3 -5 -1 -10 -9
-10 -8 0 -18 -5 -22 -12 -4 -7 -3 -8 4 -4 7 4 12 1 12 -8 0 -10 -7 -13 -20
-11 -12 2 -18 0 -15 -6 4 -5 10 -7 15 -4 5 3 11 1 15 -5 3 -5 -1 -10 -10 -10
-11 0 -15 -5 -11 -15 3 -8 -1 -18 -8 -22 -7 -5 -18 -17 -24 -28 -6 -11 -12
-14 -12 -7 0 6 9 21 20 32 10 10 16 21 12 23 -8 4 -42 -29 -36 -35 2 -3 -7
-11 -21 -18 -27 -15 -31 -25 -13 -36 7 -5 8 -3 3 6 -5 9 -4 11 4 6 13 -9 5
-27 -12 -25 -28 3 -35 -3 -33 -28 1 -16 5 -33 9 -40 4 -6 2 -15 -4 -19 -8 -4
-9 -3 -5 4 4 7 3 12 -2 12 -5 0 -9 -12 -9 -26 0 -18 3 -22 10 -15 19 19 31 12
13 -8 -17 -19 -17 -19 1 -16 10 2 19 4 21 5 1 2 7 4 12 5 6 1 12 4 15 5 3 1 9
3 14 4 5 0 13 4 17 9 11 10 24 9 24 -4 0 -5 -4 -7 -10 -4 -5 3 -7 0 -4 -9 5
-12 11 -10 31 12 14 15 30 26 35 24 5 -1 6 2 3 8 -5 8 -13 6 -25 -5 -12 -11
-20 -13 -25 -5 -3 6 -3 10 2 9 20 -4 24 2 12 18 -12 14 -12 16 1 8 8 -5 23
-10 32 -10 15 -1 15 1 5 13 -10 13 -8 15 12 9 16 -4 21 -3 14 4 -12 12 -5 49
9 49 5 0 6 -6 3 -12 -4 -7 0 -5 9 5 8 11 12 26 9 35 -5 11 -3 13 8 7 12 -8 12
-6 1 8 -12 14 -11 16 8 12 21 -4 22 -3 6 14 -16 18 -15 20 11 41 16 12 20 19
11 16 -10 -3 -18 -1 -18 4 0 9 15 14 33 11 5 -1 6 3 2 9 -3 6 -10 8 -15 5 -5
-3 -12 0 -16 6 -4 7 -3 9 3 6 6 -4 16 0 23 8 11 13 10 14 -6 9 -18 -7 -18 -7
-1 13 9 11 14 23 10 26 -3 4 0 7 8 7 10 1 10 3 -3 10 -9 6 -15 18 -13 28 2 9
4 21 4 25 1 5 5 6 9 3 5 -3 9 1 9 9 0 20 -14 19 -26 -2 -6 -10 -11 -13 -11 -6
0 6 5 15 10 18 6 4 7 11 4 17 -4 6 -2 8 4 4 6 -3 13 -2 17 4 3 5 0 10 -8 10
-15 0 -12 45 4 66 5 7 3 11 -6 11 -8 0 -12 -4 -9 -9 3 -4 0 -8 -5 -8 -14 0
-14 13 1 28 9 9 9 12 -1 12 -10 0 -11 3 -2 13 8 10 6 19 -9 35 -14 15 -16 22
-7 26 7 4 2 4 -10 2 -16 -3 -20 0 -16 11 3 8 12 12 21 8 13 -5 13 -3 -1 13 -9
10 -17 23 -17 29 0 6 -7 16 -15 23 -12 10 -13 16 -3 28 10 13 10 14 1 8 -8 -4
-13 -1 -13 8 0 9 -4 16 -10 16 -5 0 -9 -6 -7 -12z m17 -22 c0 -2 -7 -7 -16
-10 -8 -3 -12 -2 -9 4 6 10 25 14 25 6z m25 -176 c2 -12 3 -21 1 -19 -3 2 -5
9 -6 14 -1 6 -7 19 -12 30 -8 15 -8 17 1 9 6 -6 13 -21 16 -34z m39 22 c3 -5
-1 -9 -9 -9 -8 0 -15 4 -15 9 0 4 4 8 9 8 6 0 12 -4 15 -8z m-4 -144 c0 -4 -4
-8 -9 -8 -6 0 -12 4 -15 8 -3 5 1 9 9 9 8 0 15 -4 15 -9z m17 -113 c0 -8 -4
-15 -9 -15 -10 0 -11 14 -1 23 9 10 10 9 10 -8z m-217 -195 c0 -5 -5 -10 -11
-10 -5 0 -7 5 -4 10 3 6 8 10 11 10 2 0 4 -4 4 -10z m155 -10 c3 -5 1 -10 -4
-10 -6 0 -11 5 -11 10 0 6 2 10 4 10 3 0 8 -4 11 -10z m-175 -45 c0 -2 -9 -3
-19 -2 -11 0 -18 5 -15 9 4 6 34 0 34 -7z m-23 -30 c0 -8 -4 -12 -9 -9 -5 3
-6 10 -3 15 9 13 12 11 12 -6z"/>
<path d="M2335 1479 c-4 -6 -5 -12 -2 -15 2 -3 7 2 10 11 7 17 1 20 -8 4z"/>
<path d="M370 1440 c0 -5 5 -10 11 -10 5 0 7 5 4 10 -3 6 -8 10 -11 10 -2 0
-4 -4 -4 -10z"/>
<path d="M2310 1439 c0 -5 5 -7 10 -4 6 3 10 8 10 11 0 2 -4 4 -10 4 -5 0 -10
-5 -10 -11z"/>
<path d="M212 1413 c2 -10 -2 -17 -8 -16 -6 1 -10 -11 -9 -27 1 -16 -2 -27 -7
-24 -5 4 -7 12 -4 20 3 7 0 16 -7 20 -7 4 -9 3 -4 -1 4 -5 -3 -19 -15 -32 -12
-13 -18 -23 -15 -23 4 0 1 -10 -8 -23 -8 -13 -12 -26 -9 -30 12 -11 23 3 17
20 -4 11 -3 14 6 9 7 -4 10 -3 9 5 -2 6 3 14 11 17 8 3 11 0 7 -7 -4 -6 -3
-11 2 -11 6 0 12 7 16 15 3 8 11 14 18 13 7 -2 13 3 14 10 3 26 5 27 15 12 8
-11 9 -9 3 10 -6 23 -5 24 12 11 10 -7 7 -2 -8 12 -15 14 -24 28 -21 31 4 3 1
6 -6 6 -6 0 -11 -8 -9 -17z m10 -46 c-7 -8 -8 -18 -4 -22 4 -5 1 -5 -5 -1 -10
5 -10 11 -1 26 7 11 14 17 17 15 2 -3 -1 -11 -7 -18z"/>
<path d="M330 1426 c0 -2 7 -7 16 -10 8 -3 12 -2 9 4 -6 10 -25 14 -25 6z"/>
<path d="M310 1402 c0 -5 7 -9 15 -9 8 0 12 4 9 9 -3 4 -9 8 -15 8 -5 0 -9 -4
-9 -8z"/>
<path d="M2217 1383 c-4 -6 0 -13 8 -17 8 -3 17 0 21 6 4 6 3 8 -4 4 -5 -3
-12 -1 -14 6 -3 8 -6 9 -11 1z"/>
<path d="M2530 1380 c0 -5 5 -10 11 -10 5 0 7 5 4 10 -3 6 -8 10 -11 10 -2 0
-4 -4 -4 -10z"/>
<path d="M110 1260 c0 -5 5 -10 11 -10 5 0 7 5 4 10 -3 6 -8 10 -11 10 -2 0
-4 -4 -4 -10z"/>
<path d="M80 1235 c14 -17 4 -38 -13 -29 -7 4 -8 3 -4 -1 9 -11 37 -16 36 -7
-3 20 2 32 11 27 6 -4 8 -11 5 -16 -10 -16 2 -10 16 9 7 9 9 14 5 10 -5 -4
-16 -2 -24 4 -21 18 -46 20 -32 3z"/>
<path d="M80 1160 c-9 -6 -10 -10 -3 -10 6 0 15 5 18 10 8 12 4 12 -15 0z"/>
<path d="M36 1118 c3 -5 10 -6 15 -3 13 9 11 12 -6 12 -8 0 -12 -4 -9 -9z"/>
<path d="M2633 1105 c0 -8 4 -12 9 -9 5 3 6 10 3 15 -9 13 -12 11 -12 -6z"/>
<path d="M50 1080 c0 -5 5 -10 11 -10 5 0 7 5 4 10 -3 6 -8 10 -11 10 -2 0 -4
-4 -4 -10z"/>
<path d="M73 1005 c0 -8 4 -12 9 -9 5 3 6 10 3 15 -9 13 -12 11 -12 -6z"/>
<path d="M113 955 c0 -8 4 -12 9 -9 5 3 6 10 3 15 -9 13 -12 11 -12 -6z"/>
<path d="M2598 923 c7 -3 16 -2 19 1 4 3 -2 6 -13 5 -11 0 -14 -3 -6 -6z"/>
<path d="M595 860 c-3 -5 -1 -10 4 -10 6 0 11 5 11 10 0 6 -2 10 -4 10 -3 0
-8 -4 -11 -10z"/>
<path d="M550 799 c0 -5 5 -7 10 -4 6 3 10 8 10 11 0 2 -4 4 -10 4 -5 0 -10
-5 -10 -11z"/>
<path d="M2315 800 c-3 -5 -1 -10 4 -10 6 0 11 5 11 10 0 6 -2 10 -4 10 -3 0
-8 -4 -11 -10z"/>
<path d="M505 749 c-11 -16 -1 -19 13 -3 7 8 8 14 3 14 -5 0 -13 -5 -16 -11z"/>
<path d="M476 717 c3 -10 9 -15 12 -12 3 3 0 11 -7 18 -10 9 -11 8 -5 -6z"/>
<path d="M2405 700 c-4 -6 -11 -7 -17 -4 -7 4 -8 2 -4 -4 7 -12 36 -5 36 9 0
12 -7 11 -15 -1z"/>
<path d="M446 658 c3 -5 10 -6 15 -3 13 9 11 12 -6 12 -8 0 -12 -4 -9 -9z"/>
<path d="M406 602 c-3 -5 1 -9 9 -9 8 0 12 4 9 9 -3 4 -7 8 -9 8 -2 0 -6 -4
-9 -8z"/>
<path d="M1057 566 c-3 -8 -2 -18 3 -21 13 -8 20 9 11 24 -6 10 -10 9 -14 -3z"/>
<path d="M1749 543 c-13 -16 -12 -17 4 -4 16 13 21 21 13 21 -2 0 -10 -8 -17
-17z"/>
<path d="M1708 534 c12 -8 20 -19 17 -24 -3 -4 16 -30 42 -57 25 -26 41 -40
34 -30 -9 11 -10 17 -3 17 6 0 17 -10 23 -22 12 -22 22 -35 48 -64 11 -12 16
-12 28 -2 10 8 11 14 4 16 -6 2 -9 7 -7 11 3 4 -2 8 -10 8 -10 0 -11 -4 -4
-11 5 -5 10 -15 10 -20 -1 -6 -10 0 -21 13 -15 19 -17 26 -7 32 8 5 8 9 2 9
-6 0 -16 10 -22 23 -6 12 -11 17 -11 10 -1 -8 -10 -7 -31 4 -17 8 -28 18 -25
23 3 5 1 11 -5 15 -6 4 -7 12 -3 18 4 7 -2 5 -12 -3 -12 -9 -16 -10 -11 -2 7
12 -29 51 -49 52 -5 0 1 -7 13 -16z m136 -120 c3 -8 2 -12 -4 -9 -6 3 -10 10
-10 16 0 14 7 11 14 -7z"/>
<path d="M1014 522 c4 -7 1 -12 -7 -12 -8 0 -17 -7 -21 -15 -4 -13 -2 -13 14
-5 26 14 33 27 19 36 -8 4 -9 3 -5 -4z"/>
<path d="M1230 489 c-22 -18 -22 -19 -3 -10 12 6 25 16 28 21 9 15 3 12 -25
-11z"/>
<path d="M381 462 c-1 -15 -5 -21 -13 -16 -7 5 -8 3 -3 -5 10 -18 28 2 22 25
-4 15 -5 14 -6 -4z"/>
<path d="M1165 460 c-3 -6 1 -7 9 -4 18 7 21 14 7 14 -6 0 -13 -4 -16 -10z"/>
<path d="M1104 424 c-18 -14 -18 -15 4 -4 12 6 22 13 22 15 0 8 -5 6 -26 -11z"/>
<path d="M395 400 c3 -5 0 -10 -7 -10 -10 -1 -9 -4 2 -13 8 -7 20 -21 26 -32
6 -11 16 -21 23 -21 6 -1 16 -2 22 -3 5 0 8 -5 5 -9 -3 -4 7 -8 22 -8 19 1 26
-3 24 -14 -3 -13 -1 -13 10 -1 10 11 10 14 0 18 -6 3 -10 9 -6 14 3 5 2 9 -3
8 -23 -4 -67 2 -58 9 6 4 2 15 -12 29 -13 12 -23 18 -23 12 0 -6 -4 -8 -10 -4
-5 3 -7 12 -3 20 3 8 0 15 -7 15 -6 0 -8 -4 -5 -10z m49 -61 c-8 -13 -24 -1
-24 18 0 13 3 13 15 3 8 -7 12 -16 9 -21z"/>
<path d="M965 389 c-4 -6 -5 -12 -2 -15 2 -3 7 2 10 11 7 17 1 20 -8 4z"/>
<path d="M880 370 c0 -5 5 -10 11 -10 5 0 7 5 4 10 -3 6 -8 10 -11 10 -2 0 -4
-4 -4 -10z"/>
<path d="M2198 363 c7 -3 16 -2 19 1 4 3 -2 6 -13 5 -11 0 -14 -3 -6 -6z"/>
<path d="M1916 338 c3 -4 0 -8 -7 -8 -7 0 -10 -2 -7 -5 7 -7 38 5 38 14 0 4
-7 8 -15 8 -8 0 -12 -4 -9 -9z"/>
<path d="M1950 349 c0 -10 31 -68 40 -74 5 -3 12 0 16 6 4 8 9 7 15 -2 6 -10
9 -11 9 -1 0 6 5 12 11 12 5 0 8 -4 4 -9 -3 -5 0 -13 6 -17 8 -5 9 -3 4 6 -5
9 -2 10 13 6 13 -4 22 -1 25 8 8 20 -1 24 -45 21 -22 -2 -38 2 -38 8 0 6 -7 2
-16 -9 -15 -18 -15 -18 -8 5 4 15 2 21 -4 17 -6 -4 -15 2 -21 11 -6 10 -11 15
-11 12z m140 -53 c0 -3 -4 -8 -10 -11 -5 -3 -10 -1 -10 4 0 6 5 11 10 11 6 0
10 -2 10 -4z"/>
<path d="M2180 335 c0 -8 2 -15 4 -15 2 0 6 7 10 15 3 8 1 15 -4 15 -6 0 -10
-7 -10 -15z"/>
<path d="M535 330 c-3 -6 1 -7 9 -4 18 7 21 14 7 14 -6 0 -13 -4 -16 -10z"/>
<path d="M629 299 l-24 -21 25 7 c14 5 33 8 44 7 10 0 17 0 15 1 -2 2 -11 8
-20 15 -13 10 -20 8 -40 -9z"/>
<path d="M1938 313 c6 -2 9 -10 6 -15 -4 -7 -2 -8 5 -4 13 9 5 26 -12 25 -9 0
-8 -2 1 -6z"/>
<path d="M2201 311 c-7 -5 -12 -14 -10 -20 2 -6 10 -2 17 9 14 22 13 23 -7 11z"/>
<path d="M2120 300 c-9 -6 -10 -10 -3 -10 6 0 15 5 18 10 8 12 4 12 -15 0z"/>
<path d="M2139 287 c-6 -16 -5 -36 2 -31 5 3 6 10 3 16 -5 7 -1 9 9 5 9 -3 18
-3 21 1 3 4 -4 9 -15 9 -10 1 -19 1 -20 0z"/>
</g>
</svg>
